<svg width="107" height="120" viewBox="0 0 107 120" fill="none" xmlns="http://www.w3.org/2000/svg">
<g clip-path="url(#clip0_12_5)">
<path d="M106.524 35.5233C106.524 33.5255 106.095 31.76 105.228 30.2453C104.377 28.755 103.101 27.5062 101.391 26.5188C87.2713 18.4036 73.1382 10.3133 59.0233 2.18981C55.218 7.54889e-06 51.5285 0.0802537 47.7514 2.3015C42.1314 5.60482 13.9941 21.6735 5.6096 26.5143C2.15661 28.5072 0.476386 31.5565 0.475556 35.5196C0.470161 51.8397 0.475556 68.1599 0.470161 84.48C0.470161 86.434 0.8814 88.1655 1.7101 89.6575C2.56204 91.1925 3.8551 92.4756 5.60504 93.4853C13.99 98.3261 42.131 114.394 47.7497 117.698C51.5285 119.921 55.218 120 59.0245 117.81C73.1399 109.686 87.2738 101.596 101.395 93.4804C103.145 92.4711 104.438 91.1871 105.29 89.6534C106.118 88.161 106.53 86.4299 106.53 84.4754C106.53 84.4754 106.53 51.8439 106.524 35.5233Z" fill="#A179DC"/>
<path d="M53.6623 59.8408L1.71011 89.6575C2.56205 91.1925 3.8551 92.4756 5.60504 93.4853C13.99 98.3261 42.131 114.394 47.7497 117.698C51.5285 119.921 55.218 120 59.0245 117.81C73.1399 109.686 87.2738 101.596 101.395 93.4804C103.145 92.4711 104.438 91.1872 105.29 89.6534L53.6623 59.8408Z" fill="#280068"/>
<path d="M106.524 35.5233C106.524 33.5254 106.095 31.76 105.228 30.2453L53.6623 59.8412L105.29 89.6534C106.118 88.161 106.529 86.4299 106.53 84.4754C106.53 84.4754 106.53 51.8439 106.524 35.5233" fill="#390091"/>
<path d="M84.2499 48.6944V54.2678H89.8413V48.6944H92.637V54.2678H98.2283V57.0545H92.637V62.6274H98.2283V65.4141H92.637V70.9875H89.8413V65.4141H84.2499V70.9875H81.4543V65.4141H75.8633V62.6274H81.4543V57.0545H75.8633V54.2678H81.4543V48.6944H84.2499ZM89.8413 57.0541H84.2499V62.6274H89.8413V57.0541Z" fill="white"/>
<path d="M53.7764 20.7043C68.3602 20.7043 81.0928 28.599 87.9129 40.3339L87.8465 40.221L70.6874 50.0689C67.307 44.3636 61.1098 40.513 54 40.4336L53.776 40.4324C42.9348 40.4324 34.1457 49.1933 34.1457 59.9996C34.1421 63.4056 35.0348 66.753 36.7347 69.7077C40.1184 75.5958 46.4795 79.5672 53.7764 79.5672C61.1185 79.5672 67.5157 75.5454 70.882 69.5944L70.8002 69.7371L87.9332 79.6305C81.1878 91.2661 68.6295 99.1365 54.2154 99.2932L53.7764 99.2957C39.1465 99.2957 26.3778 91.3522 19.5747 79.5552C16.2537 73.7961 14.3535 67.1195 14.3535 59.9996C14.3535 38.2976 32.0031 20.7039 53.776 20.7039L53.7764 20.7043Z" fill="white"/>
</g>
<defs>
<clipPath id="clip0_12_5">
<rect width="107" height="120" fill="white"/>
</clipPath>
</defs>
</svg>
